<svg width="60" height="96" viewBox="0 0 60 75" fill="none" xmlns="http://www.w3.org/2000/svg">
<path d="M23.7734 49.5625C26.8672 49.5625 29.7188 48.5547 32.3281 46.5391L33.6641 47.8281C31.8359 50.0469 29.2969 51.5156 26.0469 52.2344C25.0156 52.4531 23.9844 52.5625 22.9531 52.5625C18.9062 52.5625 15.6875 51.0625 13.2969 48.0625C11.0938 45.2656 9.99219 41.8281 9.99219 37.75C9.99219 33.5156 11.1094 30.0156 13.3438 27.25C15.75 24.2969 18.9844 22.8203 23.0469 22.8203C25.0469 22.8203 26.9766 23.2188 28.8359 24.0156C29.1172 24.1406 29.3203 24.2109 29.4453 24.2266C30.4609 23.9609 31.0625 23.3281 31.25 22.3281H33.1016V32.3594H31.1562C30.3125 27.6562 27.7266 25.3047 23.3984 25.3047C20.6172 25.3047 18.5312 26.5938 17.1406 29.1719C15.9375 31.3594 15.3359 34.2344 15.3359 37.7969C15.3359 43.9062 17.1875 47.6719 20.8906 49.0938C21.7188 49.4062 22.6797 49.5625 23.7734 49.5625Z" fill="#FAF9F8"/>
<path d="M30.0938 38.0234C30.1719 37.0859 30.2109 36.3438 30.2109 35.7969C30.2109 34.625 30.0859 33.6328 29.8359 32.8203C29.6016 31.9922 29.1797 31.3047 28.5703 30.7578C27.9609 30.1953 27.25 29.7266 26.4375 29.3516C24.75 28.5859 23.0156 28.2031 21.2344 28.2031C19.4688 28.2031 17.9688 28.4297 16.7344 28.8828C15.5 29.3203 14.4141 29.9219 13.4766 30.6875C12.5547 31.4531 11.7656 32.3594 11.1094 33.4062C10.4531 34.4531 9.92188 35.5781 9.51562 36.7812C8.71875 39.0781 8.32031 41.6406 8.32031 44.4688C8.32031 48.3438 9.36719 51.6875 11.4609 54.5C12.9453 56.4688 14.9609 57.8594 17.5078 58.6719C18.8047 59.0938 20.1484 59.3047 21.5391 59.3047C22.9297 59.3047 24.125 59.2266 25.125 59.0703C26.125 58.8984 27.0625 58.6406 27.9375 58.2969C29.6875 57.6406 31.2969 56.5938 32.7656 55.1562L33.9375 56.7266C32.7344 58.5234 31.0312 59.9531 28.8281 61.0156C26.6406 62.0625 24 62.5859 20.9062 62.5859C15.1875 62.5859 10.6719 60.7344 7.35938 57.0312C4.32812 53.6094 2.8125 49.3672 2.8125 44.3047C2.8125 41.1328 3.5 38.1406 4.875 35.3281C7.09375 30.8125 10.6406 27.8281 15.5156 26.375C17.1875 25.8906 18.7109 25.6484 20.0859 25.6484C21.4609 25.6484 22.4609 25.6875 23.0859 25.7656C23.7109 25.8281 24.2812 25.9219 24.7969 26.0469C25.3125 26.1562 25.7812 26.2812 26.2031 26.4219L27.3984 26.8203C28.7578 27.2891 29.8281 27.5234 30.6094 27.5234C31.3906 27.5234 32.2578 26.8828 33.2109 25.6016H35.4375L32.3438 38.0234H30.0938Z" fill="#FAF9F8"/>
</svg>
