<svg width="60" height="110" viewBox="0 0 60 110" fill="none" xmlns="http://www.w3.org/2000/svg">
<path d="M23.7734 63.5625C26.8672 63.5625 29.7188 62.5547 32.3281 60.5391L33.6641 61.8281C31.8359 64.0469 29.2969 65.5156 26.0469 66.2344C25.0156 66.4531 23.9844 66.5625 22.9531 66.5625C18.9062 66.5625 15.6875 65.0625 13.2969 62.0625C11.0938 59.2656 9.99219 55.8281 9.99219 51.75C9.99219 47.5156 11.1094 44.0156 13.3438 41.25C15.75 38.2969 18.9844 36.8203 23.0469 36.8203C25.0469 36.8203 26.9766 37.2188 28.8359 38.0156C29.1172 38.1406 29.3203 38.2109 29.4453 38.2266C30.4609 37.9609 31.0625 37.3281 31.25 36.3281H33.1016V46.3594H31.1562C30.3125 41.6562 27.7266 39.3047 23.3984 39.3047C20.6172 39.3047 18.5312 40.5938 17.1406 43.1719C15.9375 45.3594 15.3359 48.2344 15.3359 51.7969C15.3359 57.9062 17.1875 61.6719 20.8906 63.0938C21.7188 63.4062 22.6797 63.5625 23.7734 63.5625Z" fill="white"/>
<path d="M30.0938 52.0234C30.1719 51.0859 30.2109 50.3438 30.2109 49.7969C30.2109 48.625 30.0859 47.6328 29.8359 46.8203C29.6016 45.9922 29.1797 45.3047 28.5703 44.7578C27.9609 44.1953 27.25 43.7266 26.4375 43.3516C24.75 42.5859 23.0156 42.2031 21.2344 42.2031C19.4688 42.2031 17.9688 42.4297 16.7344 42.8828C15.5 43.3203 14.4141 43.9219 13.4766 44.6875C12.5547 45.4531 11.7656 46.3594 11.1094 47.4062C10.4531 48.4531 9.92188 49.5781 9.51562 50.7812C8.71875 53.0781 8.32031 55.6406 8.32031 58.4688C8.32031 62.3438 9.36719 65.6875 11.4609 68.5C12.9453 70.4688 14.9609 71.8594 17.5078 72.6719C18.8047 73.0938 20.1484 73.3047 21.5391 73.3047C22.9297 73.3047 24.125 73.2266 25.125 73.0703C26.125 72.8984 27.0625 72.6406 27.9375 72.2969C29.6875 71.6406 31.2969 70.5938 32.7656 69.1562L33.9375 70.7266C32.7344 72.5234 31.0312 73.9531 28.8281 75.0156C26.6406 76.0625 24 76.5859 20.9062 76.5859C15.1875 76.5859 10.6719 74.7344 7.35938 71.0312C4.32812 67.6094 2.8125 63.3672 2.8125 58.3047C2.8125 55.1328 3.5 52.1406 4.875 49.3281C7.09375 44.8125 10.6406 41.8281 15.5156 40.375C17.1875 39.8906 18.7109 39.6484 20.0859 39.6484C21.4609 39.6484 22.4609 39.6875 23.0859 39.7656C23.7109 39.8281 24.2812 39.9219 24.7969 40.0469C25.3125 40.1562 25.7812 40.2812 26.2031 40.4219L27.3984 40.8203C28.7578 41.2891 29.8281 41.5234 30.6094 41.5234C31.3906 41.5234 32.2578 40.8828 33.2109 39.6016H35.4375L32.3438 52.0234H30.0938Z" fill="white"/>
</svg>
